<svg width="996" height="137" viewBox="0 0 996 137" fill="none" xmlns="http://www.w3.org/2000/svg">
<path d="M127.253 2.63135C102.129 7.99102 85.2461 18.5346 81.0938 33.8013C72.624 64.943 119.781 105.967 191.694 134.208H0L36.2988 2.63135H127.253Z" fill="#04070E"/>
<path d="M906.79 134.208V2.63147H937.666V107.016H995.385V134.208H906.79Z" fill="#04070E"/>
<path d="M809.268 134.208V2.63147H840.144V107.016H897.863V134.208H809.268Z" fill="#04070E"/>
<path d="M710.868 134.208V2.63147H800.341V29.1223H741.394V53.8588H796.657V79.297H741.394V107.718H800.341V134.208H710.868Z" fill="#04070E"/>
<path d="M575.793 136.84C568.659 136.84 563.103 134.676 559.127 130.349C555.15 126.021 552.168 119.355 550.18 110.349L527.198 2.63154H557.723L577.372 97.7178C577.489 98.1856 577.665 98.4196 577.899 98.4196C578.132 98.4196 578.308 98.1856 578.425 97.7178L593.337 23.333C594.74 16.1986 597.313 10.5262 601.056 6.3157C604.799 2.10523 609.886 0 616.319 0C622.869 0 628.015 2.10523 631.757 6.3157C635.5 10.5262 638.073 16.1986 639.477 23.333L654.389 96.4898C654.506 96.9576 654.681 97.1915 654.915 97.1915C655.149 97.1915 655.324 96.9576 655.441 96.4898L674.564 2.63154H704.037L681.23 110.349C679.359 119.355 676.377 126.021 672.283 130.349C668.306 134.676 662.751 136.84 655.617 136.84C648.014 136.84 642.342 134.559 638.599 129.998C634.857 125.437 632.108 118.946 630.354 110.525L616.319 41.5783C616.202 41.1105 616.027 40.8766 615.793 40.8766C615.559 40.8766 615.383 41.1105 615.266 41.5783L601.056 110.525C599.302 118.946 596.553 125.437 592.811 129.998C589.068 134.559 583.396 136.84 575.793 136.84Z" fill="#04070E"/>
<path d="M476.425 136.84C466.132 136.84 456.776 135.086 448.355 131.577C440.051 128.068 433.384 122.981 428.355 116.314C423.443 109.531 420.987 101.227 420.987 91.4021H452.214C452.799 97.9517 455.255 102.805 459.583 105.963C463.91 109.121 469.29 110.7 475.723 110.7C482.039 110.7 487.243 109.589 491.337 107.367C495.43 105.145 497.477 102.045 497.477 98.0687C497.477 94.6769 496.249 92.1623 493.793 90.5249C491.337 88.8875 487.594 87.3086 482.565 85.7882L454.495 77.5427C448.998 75.9053 443.793 73.8585 438.881 71.4024C433.969 68.8294 429.993 65.3206 426.952 60.8763C424.028 56.4319 422.566 50.4086 422.566 42.8064C422.566 34.0346 424.671 26.4908 428.881 20.1751C433.092 13.7425 439.057 8.7718 446.776 5.26308C454.495 1.75436 463.559 0 473.968 0C489.056 0 501.278 3.68416 510.635 11.0525C520.108 18.4208 525.547 28.8884 526.95 42.4555H495.372C492.916 31.3446 485.372 25.7891 472.74 25.7891C466.659 25.7891 461.98 26.9587 458.706 29.2978C455.548 31.637 453.969 34.7948 453.969 38.7713C453.969 41.6953 454.963 44.1514 456.951 46.1397C458.939 48.1279 462.097 49.7653 466.425 51.0519L495.723 59.8237C506.95 63.0985 515.137 67.6013 520.284 73.3322C525.43 79.0631 528.003 86.5484 528.003 95.788C528.003 103.975 525.839 111.168 521.512 117.367C517.301 123.448 511.336 128.244 503.617 131.752C495.898 135.144 486.834 136.84 476.425 136.84Z" fill="#04070E"/>
<path d="M326.986 134.208V2.63147H416.458V29.1223H357.512V53.8588H412.774V79.297H357.512V107.718H416.458V134.208H326.986Z" fill="#04070E"/>
<path d="M212.96 134.208V2.63147H265.24C281.614 2.63147 294.187 5.96475 302.959 12.6313C311.731 19.1809 316.116 28.596 316.116 40.8765C316.116 48.1279 314.187 54.4436 310.327 59.8236C306.467 65.2036 300.97 69.3556 293.836 72.2795C301.906 74.8526 307.345 78.7122 310.152 83.8583C312.959 88.8875 314.362 95.3201 314.362 103.156V134.208H284.187V106.314C284.187 92.864 277.871 86.139 265.24 86.139H243.486V134.208H212.96ZM243.486 60.3499H265.24C271.439 60.3499 276.175 58.9464 279.45 56.1394C282.842 53.2155 284.538 49.122 284.538 43.8589C284.538 39.0637 282.842 35.3795 279.45 32.8065C276.175 30.1164 271.439 28.7714 265.24 28.7714H243.486V60.3499Z" fill="#04070E"/>
</svg>
